# xmcd
#
# Track frame offsets:
#	150
#	23189
#	41869
#	62666
#	78078
#	85781
#	97820
#	114763
#	134895
#	151759
#	168854
#	184287
#	211015
#	233954
#
# Disc length: 3500 seconds
#
# Revision: 1
# Processed by: cddbd v1.5.1PL0 Copyright (c) Steve Scherf et al.
# Submitted via: audiograbber 1.83.01
#
DISCID=a80daa0e
DTITLE=Various Artist - Mixed Hands by DJ Nullvektor
DYEAR=2005
DGENRE=Industrial
TTITLE0=Xabec - Dark Time Rising
TTITLE1=Orphx - Surface IV
TTITLE2=Nullvektor - AD100 (RMX)
TTITLE3=Wai Pi Wai - Blue Voice
TTITLE4=Shorai - Pneum4t1c Rhythm
TTITLE5=Needle Sharing - Gay Basher
TTITLE6=Ah Cama-Sotz - An Râr and Le Feu +
TTITLE7=S.K.E.T. - Revolution Of The Pigs
TTITLE8=MS Gentur - Beefeater
TTITLE9=S.I.N.A - Bewegungsablauf
TTITLE10=Mono No Aware - Oduroku (RMX By Nullvektor)
TTITLE11=Winterkälte - Ban Depleted Uranium Weapons (Poison Dust)
TTITLE12=Synth-Etik - Vata
TTITLE13=Punch Inc. - Da Hunter
EXTD=
EXTT0=
EXTT1=
EXTT2=
EXTT3=
EXTT4=
EXTT5=
EXTT6=
EXTT7=
EXTT8=
EXTT9=
EXTT10=
EXTT11=
EXTT12=
EXTT13=
PLAYORDER=
